<svg width="290" height="188" viewBox="0 0 290 188" fill="none" xmlns="http://www.w3.org/2000/svg">
<g clip-path="url(#clip0)">
<path d="M147.18 181.218L277.462 13.8684" stroke="#4C9AFF" stroke-width="4.32573"/>
<path d="M138.317 25.3157H43.609V121.256H138.317V25.3157Z" fill="#F4F5F7"/>
<path d="M138.313 25.3362H119.213V120.469H138.313V25.3362Z" fill="url(#paint0_linear)"/>
<path d="M225.535 68.2322H129.737V163.365H225.535V68.2322Z" fill="#F4F5F7"/>
<g clip-path="url(#clip1)">
<path d="M203.662 91.8667H150.437V132.2H203.662V91.8667Z" fill="#2684FF"/>
<path d="M203.662 91.8667H150.437V96.1932H203.662V91.8667Z" fill="#EAEAEE"/>
<path d="M153.89 95.1979C154.507 95.1979 155.007 94.6977 155.007 94.0807C155.007 93.4637 154.507 92.9636 153.89 92.9636C153.273 92.9636 152.773 93.4637 152.773 94.0807C152.773 94.6977 153.273 95.1979 153.89 95.1979Z" fill="#0065FF"/>
<path d="M153.897 95.1979C154.514 95.1979 155.014 94.6977 155.014 94.0807C155.014 93.4637 154.514 92.9636 153.897 92.9636C153.28 92.9636 152.78 93.4637 152.78 94.0807C152.78 94.6977 153.28 95.1979 153.897 95.1979Z" fill="#253858"/>
<path d="M157.533 95.1979C158.15 95.1979 158.65 94.6977 158.65 94.0807C158.65 93.4637 158.15 92.9636 157.533 92.9636C156.916 92.9636 156.415 93.4637 156.415 94.0807C156.415 94.6977 156.916 95.1979 157.533 95.1979Z" fill="#A5ADBA"/>
<path d="M161.175 95.1979C161.792 95.1979 162.292 94.6977 162.292 94.0807C162.292 93.4637 161.792 92.9636 161.175 92.9636C160.558 92.9636 160.058 93.4637 160.058 94.0807C160.058 94.6977 160.558 95.1979 161.175 95.1979Z" fill="#0065FF"/>
<path d="M156.483 123.838H154.459V124.447H156.483V123.838Z" fill="#0065FF"/>
<path d="M180.749 123.838H178.725V124.447H180.749V123.838Z" fill="#0065FF"/>
<path d="M152.434 123.838H150.45V124.447H152.434V123.838Z" fill="#0065FF"/>
<path d="M164.574 123.838H162.55V124.447H164.574V123.838Z" fill="#0065FF"/>
<path d="M160.532 123.838H158.508V124.447H160.532V123.838Z" fill="#0065FF"/>
<path d="M172.665 123.838H170.641V124.447H172.665V123.838Z" fill="#0065FF"/>
<path d="M176.707 123.838H174.683V124.447H176.707V123.838Z" fill="#0065FF"/>
<path d="M184.798 123.838H182.774V124.447H184.798V123.838Z" fill="#0065FF"/>
<path d="M192.883 103.614H190.858V104.223H192.883V103.614Z" fill="#0065FF"/>
<path d="M152.434 103.614H150.45V104.223H152.434V103.614Z" fill="#0065FF"/>
<path d="M156.483 103.614H154.459V104.223H156.483V103.614Z" fill="#0065FF"/>
<path d="M176.707 103.614H174.683V104.223H176.707V103.614Z" fill="#0065FF"/>
<path d="M188.84 103.614H188.123V102.856H187.513V103.614H186.816V104.216H187.513V104.88H188.123V104.216H188.84V103.614Z" fill="#0065FF"/>
<path d="M184.798 103.614H182.774V104.223H184.798V103.614Z" fill="#0065FF"/>
<path d="M164.574 103.614H162.55V104.223H164.574V103.614Z" fill="#0065FF"/>
<path d="M180.749 103.614H178.725V104.223H180.749V103.614Z" fill="#0065FF"/>
<path d="M172.665 103.614H170.641V104.223H172.665V103.614Z" fill="#0065FF"/>
<path d="M196.931 103.614H194.907V104.223H196.931V103.614Z" fill="#0065FF"/>
<path d="M203.655 103.614H202.998V104.223H203.655V103.614Z" fill="#0065FF"/>
<path d="M200.974 103.614H198.949V104.223H200.974V103.614Z" fill="#0065FF"/>
<path d="M192.889 103.614H190.865V104.223H192.889V103.614Z" fill="#0065FF"/>
<path d="M167.919 124.448H168.616V123.838H167.919V123.08H167.31V123.838H166.592V124.448H167.31V125.104H167.919V124.448Z" fill="#0065FF"/>
<path d="M167.919 127.122H167.31V129.146H167.919V127.122Z" fill="#0065FF"/>
<path d="M167.919 110.947H167.31V112.971H167.919V110.947Z" fill="#0065FF"/>
<path d="M168.616 103.614H167.919V102.856H167.31V103.614H166.592V104.216H167.31V104.88H167.919V104.216H168.616V103.614Z" fill="#0065FF"/>
<path d="M167.919 98.8135H167.31V100.838H167.919V98.8135Z" fill="#0065FF"/>
<path d="M167.919 119.038H167.31V121.062H167.919V119.038Z" fill="#0065FF"/>
<path d="M167.919 114.996H167.31V117.02H167.919V114.996Z" fill="#0065FF"/>
<path d="M167.919 106.905H167.31V108.929H167.919V106.905Z" fill="#0065FF"/>
<path d="M167.919 131.171H167.31V132.2H167.919V131.171Z" fill="#0065FF"/>
<path d="M188.109 127.122H187.5V129.146H188.109V127.122Z" fill="#0065FF"/>
<path d="M188.109 131.171H187.5V132.2H188.109V131.171Z" fill="#0065FF"/>
<path d="M167.919 96.1932H167.31V96.7958H167.919V96.1932Z" fill="#0065FF"/>
<path d="M188.123 114.996H187.513V117.02H188.123V114.996Z" fill="#0065FF"/>
<path d="M188.123 119.038H187.513V121.062H188.123V119.038Z" fill="#0065FF"/>
<path d="M188.123 98.8135H187.513V100.838H188.123V98.8135Z" fill="#0065FF"/>
<path d="M188.123 96.1932H187.513V96.7958H188.123V96.1932Z" fill="#0065FF"/>
<path d="M188.123 110.947H187.513V112.971H188.123V110.947Z" fill="#0065FF"/>
<path d="M188.123 106.905H187.513V108.929H188.123V106.905Z" fill="#0065FF"/>
<path d="M188.123 125.104V124.448H188.84V123.838H188.123V123.08H187.513V123.838H186.816V124.448H187.513V125.104H188.123Z" fill="#0065FF"/>
<path d="M150.45 102.327V105.51L160.986 105.374L150.45 116.18V120.744L168.63 102.091L150.45 102.327Z" fill="#0065FF"/>
<g opacity="0.5">
<path opacity="0.5" d="M167.614 124.143L187.818 103.912" stroke="#B2D4FF" stroke-width="0.66" stroke-miterlimit="10"/>
<path opacity="0.5" d="M167.614 103.912L187.818 124.143" stroke="#B2D4FF" stroke-width="0.66" stroke-miterlimit="10"/>
<path opacity="0.5" d="M187.818 103.912H167.614V124.136H187.818V103.912Z" stroke="#B2D4FF" stroke-width="0.66" stroke-miterlimit="10"/>
</g>
<path d="M203.662 123.838V116.81L195.462 125.971L194.155 130.961L198.956 129.099H198.963L203.662 123.838Z" fill="#0065FF"/>
<path d="M189.782 129.756L194.589 127.887L191.095 124.766L189.782 129.756Z" fill="#FEEFD3"/>
<path d="M189.782 129.756L191.691 129.011L190.303 127.772L189.782 129.756Z" fill="#505F79"/>
<path d="M191.095 124.766L194.589 127.887L209.248 111.495L205.754 108.374L191.095 124.766Z" fill="#FDC150"/>
<path d="M192.842 126.33L194.589 127.887L209.247 111.495L207.501 109.938L192.842 126.33Z" fill="#FFAB00"/>
<path d="M191.095 124.766L192.842 126.33L207.501 109.938L205.754 108.374L191.095 124.766Z" fill="url(#paint1_linear)"/>
<path d="M210.812 106.356L210.676 106.234C210.456 106.038 210.199 105.886 209.92 105.789C209.641 105.692 209.345 105.65 209.05 105.667C208.756 105.684 208.467 105.759 208.201 105.888C207.935 106.017 207.697 106.196 207.501 106.417L205.131 109.078L208.645 112.179L211.015 109.525C211.406 109.077 211.603 108.492 211.565 107.899C211.527 107.305 211.256 106.751 210.812 106.356Z" fill="#0065FF"/>
<path d="M145.034 99.7343L145 122.518L167.75 99.7682L145.034 99.7343ZM148.385 114.488V103.045H159.814L148.385 114.488Z" fill="#5E6C84"/>
<path d="M157.12 110.408L157.599 109.929L156.536 108.866L156.057 109.345L157.12 110.408Z" fill="#97A0AF"/>
<path d="M155.231 112.293L155.71 111.814L154.647 110.751L154.168 111.23L155.231 112.293Z" fill="#97A0AF"/>
<path d="M153.342 114.178L153.821 113.7L152.758 112.637L152.279 113.115L153.342 114.178Z" fill="#97A0AF"/>
<path d="M151.455 116.068L151.934 115.589L150.871 114.527L150.392 115.005L151.455 116.068Z" fill="#97A0AF"/>
<path d="M149.571 117.951L150.049 117.473L148.987 116.41L148.508 116.889L149.571 117.951Z" fill="#97A0AF"/>
<path d="M147.682 119.837L148.16 119.358L147.098 118.295L146.619 118.774L147.682 119.837Z" fill="#97A0AF"/>
<path d="M164.669 102.851L165.148 102.372L164.085 101.309L163.607 101.788L164.669 102.851Z" fill="#97A0AF"/>
<path d="M162.78 104.736L163.259 104.257L162.196 103.194L161.718 103.673L162.78 104.736Z" fill="#97A0AF"/>
<path d="M160.893 106.626L161.372 106.147L160.309 105.084L159.831 105.563L160.893 106.626Z" fill="#97A0AF"/>
<path d="M159.004 108.511L159.483 108.032L158.42 106.969L157.941 107.448L159.004 108.511Z" fill="#97A0AF"/>
</g>
<path d="M56.1466 88.0038L147.726 181.218" stroke="#4C9AFF" stroke-width="4.32573"/>
<path d="M55.6014 88.0038L19.624 128.342" stroke="#4C9AFF" stroke-width="4.32573"/>
<path d="M70.7249 46.3332H110.251V88.9901H70.7249V46.3332Z" fill="white" fill-opacity="0.01"/>
<path d="M90.4876 56.2528C89.3547 56.2508 88.2476 55.9134 87.3059 55.2832C86.3641 54.6529 85.6296 53.758 85.195 52.711C84.7603 51.6639 84.6449 50.5117 84.8632 49.3992C85.0816 48.2867 85.6239 47.2636 86.4219 46.4589C86.5064 46.4049 86.6068 46.3814 86.7064 46.3923C86.8061 46.4032 86.899 46.4478 86.9699 46.5187C87.0408 46.5896 87.0853 46.6826 87.0962 46.7824C87.1071 46.8821 87.0836 46.9825 87.0297 47.0671C86.5747 47.5205 86.2144 48.0599 85.9697 48.654C85.725 49.2481 85.6009 49.8849 85.6046 50.5275C85.6018 51.1699 85.7262 51.8066 85.9706 52.4007C86.215 52.9948 86.5746 53.5346 87.0286 53.9889C87.4826 54.4432 88.022 54.803 88.6157 55.0476C89.2094 55.2922 89.8456 55.4167 90.4876 55.4139C90.5988 55.4139 90.7054 55.4581 90.784 55.5368C90.8626 55.6154 90.9068 55.7221 90.9068 55.8334C90.9068 55.9446 90.8626 56.0513 90.784 56.13C90.7054 56.2086 90.5988 56.2528 90.4876 56.2528Z" fill="#344563"/>
<path d="M90.4877 56.2528C90.3765 56.2528 90.2699 56.2086 90.1913 56.13C90.1127 56.0513 90.0685 55.9446 90.0685 55.8334C90.0685 55.7221 90.1127 55.6154 90.1913 55.5368C90.2699 55.4581 90.3765 55.4139 90.4877 55.4139C91.455 55.416 92.4011 55.1305 93.2059 54.5937C94.0109 54.0569 94.6383 53.293 95.0087 52.3988C95.3792 51.5047 95.4758 50.5206 95.2866 49.5713C95.0973 48.6221 94.6306 47.7505 93.9457 47.0671C93.8916 46.9825 93.8682 46.8821 93.8791 46.7824C93.89 46.6826 93.9346 46.5896 94.0054 46.5187C94.0763 46.4478 94.1693 46.4032 94.2689 46.3923C94.3686 46.3814 94.469 46.4049 94.5535 46.4589C95.6221 47.5388 96.2215 48.9972 96.2215 50.517C96.2215 52.0368 95.6221 53.4951 94.5535 54.575C94.0205 55.1102 93.3868 55.5341 92.6887 55.8221C91.9908 56.1101 91.2426 56.2565 90.4877 56.2528Z" fill="#0065FF"/>
<path d="M90.2572 68.2069H76.0061C74.6054 68.2069 73.2621 67.6501 72.2717 66.659C71.2813 65.6678 70.7249 64.3236 70.7249 62.9219C70.7249 62.8107 70.769 62.704 70.8476 62.6254C70.9262 62.5467 71.0328 62.5025 71.144 62.5025C71.2552 62.5025 71.3618 62.5467 71.4404 62.6254C71.519 62.704 71.5631 62.8107 71.5631 62.9219C71.5687 64.0994 72.0385 65.2271 72.8706 66.0597C73.7026 66.8923 74.8295 67.3625 76.0061 67.368H90.2572C90.313 67.3651 90.3688 67.3737 90.4211 67.3938C90.4733 67.4137 90.5207 67.4445 90.5603 67.4842C90.5998 67.5236 90.6306 67.5712 90.6506 67.6234C90.6706 67.6757 90.6793 67.7316 90.6763 67.7874C90.6763 67.8986 90.6321 68.0053 90.5535 68.084C90.4749 68.1626 90.3683 68.2069 90.2572 68.2069Z" fill="#253858"/>
<path d="M104.969 68.2069H90.2571C90.146 68.2069 90.0394 68.1626 89.9608 68.084C89.8822 68.0053 89.838 67.8986 89.838 67.7874C89.835 67.7316 89.8437 67.6757 89.8637 67.6234C89.8837 67.5712 89.9145 67.5236 89.954 67.4842C89.9936 67.4445 90.041 67.4137 90.0932 67.3938C90.1454 67.3737 90.2013 67.3651 90.2571 67.368H104.969C106.146 67.3625 107.273 66.8923 108.105 66.0597C108.937 65.2271 109.407 64.0994 109.412 62.9219C109.412 62.8107 109.456 62.704 109.535 62.6254C109.614 62.5467 109.72 62.5025 109.831 62.5025C109.942 62.5025 110.049 62.5467 110.128 62.6254C110.206 62.704 110.251 62.8107 110.251 62.9219C110.251 64.3236 109.694 65.6678 108.704 66.659C107.713 67.6501 106.37 68.2069 104.969 68.2069Z" fill="#0065FF"/>
<path d="M109.831 73.7016H90.257C90.1459 73.7016 90.0393 73.6575 89.9607 73.5789C89.882 73.5002 89.8379 73.3935 89.8379 73.2821C89.8379 73.171 89.882 73.0642 89.9607 72.9856C90.0393 72.9069 90.1459 72.8627 90.257 72.8627H109.831C109.942 72.8627 110.049 72.9069 110.128 72.9856C110.206 73.0642 110.25 73.171 110.25 73.2821C110.25 73.3935 110.206 73.5002 110.128 73.5789C110.049 73.6575 109.942 73.7016 109.831 73.7016Z" fill="#0065FF"/>
<path d="M90.2572 73.7016H71.144C71.0328 73.7016 70.9262 73.6575 70.8476 73.5789C70.769 73.5002 70.7249 73.3935 70.7249 73.2821C70.7249 73.171 70.769 73.0642 70.8476 72.9856C70.9262 72.9069 71.0328 72.8627 71.144 72.8627H90.2572C90.3683 72.8627 90.4749 72.9069 90.5535 72.9856C90.6322 73.0642 90.6763 73.171 90.6763 73.2821C90.6763 73.3935 90.6322 73.5002 90.5535 73.5789C90.4749 73.6575 90.3683 73.7016 90.2572 73.7016Z" fill="#253858"/>
<path d="M71.144 84.0825C71.0328 84.0825 70.9262 84.0385 70.8476 83.9596C70.769 83.881 70.7249 83.7745 70.7249 83.6631C70.7249 82.2615 71.2813 80.9172 72.2717 79.9261C73.2621 78.935 74.6054 78.3782 76.0061 78.3782H90.2572C90.3683 78.3782 90.4749 78.4224 90.5535 78.5011C90.6322 78.5797 90.6763 78.6865 90.6763 78.7976C90.6763 78.909 90.6322 79.0155 90.5535 79.0942C90.4749 79.173 90.3683 79.2171 90.2572 79.2171H76.0061C75.4227 79.2171 74.8449 79.3322 74.3059 79.5555C73.7668 79.7789 73.277 80.1065 72.8645 80.5194C72.0312 81.353 71.5632 82.4841 71.5632 83.6631C71.5632 83.7745 71.519 83.881 71.4404 83.9596C71.3618 84.0385 71.2552 84.0825 71.144 84.0825Z" fill="#253858"/>
<path d="M109.831 84.0825C109.72 84.0825 109.613 84.0385 109.535 83.9596C109.456 83.881 109.412 83.7745 109.412 83.6631C109.412 82.4841 108.944 81.353 108.111 80.5194C107.278 79.6856 106.148 79.2171 104.969 79.2171H90.257C90.1459 79.2171 90.0393 79.173 89.9607 79.0942C89.882 79.0155 89.8379 78.909 89.8379 78.7976C89.8379 78.6865 89.882 78.5797 89.9607 78.5011C90.0393 78.4224 90.1459 78.3782 90.257 78.3782H104.969C106.37 78.3782 107.713 78.935 108.703 79.9261C109.694 80.9172 110.25 82.2615 110.25 83.6631C110.25 83.7745 110.206 83.881 110.128 83.9596C110.049 84.0385 109.942 84.0825 109.831 84.0825Z" fill="#0065FF"/>
<path d="M89.377 57.8888H91.5985C92.7258 57.886 93.8428 58.1058 94.885 58.5357C95.9275 58.9655 96.875 59.5969 97.673 60.3936C98.4713 61.1904 99.1044 62.1369 99.5365 63.179C99.9687 64.221 100.191 65.3381 100.191 66.4663V70.9543H80.7845V66.4663C80.7845 65.3381 81.0069 64.221 81.439 63.179C81.871 62.1369 82.5043 61.1904 83.3025 60.3936C84.1006 59.5969 85.048 58.9655 86.0904 58.5357C87.1328 58.1058 88.2496 57.886 89.377 57.8888Z" fill="#253858"/>
<path d="M90.4875 59.0842H83.1943C83.1237 59.0843 83.0539 59.07 82.9889 59.0424C82.9239 59.0147 82.8652 58.9742 82.8163 58.9233C82.7673 58.8724 82.7292 58.8121 82.7041 58.746C82.6791 58.68 82.6676 58.6095 82.6704 58.5389C82.8134 56.562 83.6991 54.7125 85.1493 53.3624C86.5995 52.0123 88.5068 51.2618 90.4875 51.2617V59.0842Z" fill="url(#paint2_linear)"/>
<path d="M90.4877 51.2617C92.4663 51.2621 94.3709 52.0134 95.8178 53.364C97.2647 54.7145 98.146 56.5638 98.2839 58.5389C98.2897 58.6085 98.2809 58.6785 98.2583 58.7445C98.2357 58.8104 98.1994 58.871 98.1523 58.9223C98.1049 58.9736 98.0475 59.0144 97.9836 59.0423C97.9196 59.0702 97.8507 59.0844 97.7809 59.0842H90.4877V51.2617Z" fill="url(#paint3_linear)"/>
<path d="M97.6132 60.4686C95.7233 60.4686 93.9109 61.2199 92.5747 62.5571C91.2384 63.8943 90.4877 65.708 90.4877 67.5991V88.9906C94.2655 88.9849 97.8871 87.4808 100.559 84.8075C103.23 82.1342 104.733 78.51 104.739 74.7296V62.7126C104.739 62.1175 104.502 61.5467 104.082 61.1259C103.661 60.705 103.091 60.4686 102.496 60.4686H97.6132Z" fill="url(#paint4_linear)"/>
<path d="M99.667 68.3122L95.8318 64.4533L90.4877 69.8012L85.1436 64.4533L81.3083 68.3122L86.6525 73.66L81.3083 79.0079L85.1436 82.8458L90.4877 77.4979L95.8318 82.8458L99.667 79.0079L94.3229 73.66L99.667 68.3122Z" fill="#F15538"/>
<path d="M76.2366 62.7126V74.7296C76.2366 78.5117 77.7381 82.1392 80.4107 84.8136C83.0833 87.4881 86.7081 88.9906 90.4877 88.9906V67.5991C90.4877 65.708 89.737 63.8943 88.4006 62.5571C87.0644 61.2199 85.252 60.4686 83.3622 60.4686H78.4791C78.1846 60.4686 77.893 60.5267 77.6209 60.6394C77.3489 60.7522 77.1017 60.9175 76.8934 61.1259C76.6852 61.3342 76.52 61.5816 76.4073 61.8539C76.2946 62.1261 76.2366 62.4179 76.2366 62.7126Z" fill="url(#paint5_linear)"/>
<path d="M99.667 68.3122L95.8318 64.4533L90.4877 69.8012L85.1436 64.4533L81.3083 68.3122L86.6525 73.66L81.3083 79.0079L85.1436 82.8458L90.4877 77.4979L95.8318 82.8458L99.667 79.0079L94.3229 73.66L99.667 68.3122Z" fill="#E64418"/>
<ellipse cx="147.628" cy="181.452" rx="5.89873" ry="5.90283" fill="#57D9A3"/>
<ellipse cx="56.0491" cy="87.9103" rx="5.89873" ry="5.90283" fill="#57D9A3"/>
<path d="M286.96 9.2916C286.96 12.8586 284.071 15.7472 280.511 15.7472C276.951 15.7472 274.062 12.8586 274.062 9.2916C274.062 5.72459 276.951 2.83604 280.511 2.83604C284.071 2.83604 286.96 5.72459 286.96 9.2916Z" stroke="#57D9A3" stroke-width="5.19088"/>
<path d="M250.379 113.909C250.379 116.909 247.949 119.34 244.952 119.34C241.956 119.34 239.526 116.909 239.526 113.909C239.526 110.909 241.956 108.478 244.952 108.478C247.949 108.478 250.379 110.909 250.379 113.909Z" stroke="#B3D4FF" stroke-width="1.73029"/>
<path d="M24.8014 65.4091C24.8014 68.4093 22.3712 70.8403 19.3746 70.8403C16.378 70.8403 13.9478 68.4093 13.9478 65.4091C13.9478 62.409 16.378 59.9779 19.3746 59.9779C22.3712 59.9779 24.8014 62.409 24.8014 65.4091Z" stroke="#B3D4FF" stroke-width="1.73029"/>
<rect x="150.651" y="43.2877" width="10.0672" height="10.0754" stroke="#ABF5D1" stroke-width="1.73029"/>
<rect x="257.615" y="126.399" width="10.0672" height="10.0754" stroke="#ABF5D1" stroke-width="1.73029"/>
<path d="M43.7708 121.256H0V165.225H43.7708V121.256Z" fill="#F4F5F7"/>
<path opacity="0.5" fill-rule="evenodd" clip-rule="evenodd" d="M33.4779 139.248C33.4504 137.803 32.2711 136.64 30.8204 136.64H21.3161L21.282 136.641C20.8975 136.658 20.5912 136.976 20.5912 137.365C20.5912 137.766 20.9158 138.091 21.3161 138.091H30.8204L30.8595 138.091C31.5087 138.112 32.0286 138.645 32.0286 139.3V142.04L32.028 142.079C32.0073 142.729 31.4746 143.249 30.8204 143.249H29.4208C29.1126 142.268 28.1962 141.557 27.1135 141.557H15.3573C14.2747 141.557 13.3582 142.268 13.05 143.249H11.6507L11.5991 143.25C10.155 143.277 8.99277 144.457 8.99277 145.909V148.649L8.99326 148.701C9.02081 150.146 10.2001 151.309 11.6507 151.309H21.2356L21.2697 151.308C21.6542 151.291 21.9605 150.973 21.9605 150.584C21.9605 150.183 21.6359 149.858 21.2356 149.858H11.6507L11.6116 149.858C10.9625 149.837 10.4426 149.304 10.4426 148.649V145.909L10.4432 145.87C10.4638 145.22 10.9966 144.7 11.6507 144.7H13.0499C13.358 145.681 14.2746 146.393 15.3573 146.393H27.1135C28.1963 146.393 29.1128 145.681 29.4209 144.7H30.8204L30.8721 144.699C32.3162 144.672 33.4784 143.492 33.4784 142.04V139.3L33.4779 139.248Z" fill="#6554C0"/>
<path fill-rule="evenodd" clip-rule="evenodd" d="M27.1136 148.166C28.449 148.166 29.5316 149.248 29.5316 150.584C29.5316 151.919 28.449 153.002 27.1136 153.002H15.3574C14.0219 153.002 12.9393 151.919 12.9393 150.584C12.9393 149.248 14.0219 148.166 15.3574 148.166H27.1136Z" fill="#6554C0"/>
<path fill-rule="evenodd" clip-rule="evenodd" d="M27.1136 134.947C28.449 134.947 29.5316 136.03 29.5316 137.365C29.5316 138.701 28.449 139.783 27.1136 139.783H15.3574C14.0219 139.783 12.9393 138.701 12.9393 137.365C12.9393 136.03 14.0219 134.947 15.3574 134.947H27.1136Z" fill="#6554C0"/>
<path d="M269.448 24.2256H225.677V68.1947H269.448V24.2256Z" fill="#F4F5F7"/>
<path fill-rule="evenodd" clip-rule="evenodd" d="M256.753 39.1887H252.725L252.725 35.1586L256.753 39.1887Z" fill="#6554C0"/>
<path fill-rule="evenodd" clip-rule="evenodd" d="M250.599 55.7926C251.773 55.7926 252.725 54.8405 252.725 53.6662V43.2188H248.698L248.698 39.1888H241.481C240.307 39.1888 239.355 40.1408 239.355 41.3152V53.6662C239.355 54.8405 240.307 55.7926 241.481 55.7926H250.599ZM250.389 45.7173C250.389 45.3167 250.065 44.9919 249.665 44.9919H242.577L242.543 44.9927C242.158 45.0105 241.852 45.3282 241.852 45.7173C241.852 46.118 242.176 46.4427 242.577 46.4427H249.665L249.699 46.442C250.083 46.4241 250.389 46.1065 250.389 45.7173ZM246.121 48.6997C246.521 48.6997 246.846 49.0245 246.846 49.4251C246.846 49.8143 246.539 50.1319 246.155 50.1497L246.121 50.1505H242.577C242.176 50.1505 241.852 49.8257 241.852 49.4251C241.852 49.0359 242.158 48.7183 242.543 48.7005L242.577 48.6997H246.121Z" fill="#6554C0"/>
<path opacity="0.5" fill-rule="evenodd" clip-rule="evenodd" d="M254.626 51.7623C255.801 51.7623 256.753 50.8103 256.753 49.6359V39.1885L252.725 35.1585H245.508C244.334 35.1585 243.382 36.1105 243.382 37.2849V44.1858H251.114V51.7623H254.626ZM248.698 43.2185H252.725L248.698 39.1884V43.2185Z" fill="#6554C0"/>
</g>
<defs>
<linearGradient id="paint0_linear" x1="119.213" y1="72.9028" x2="138.313" y2="72.9028" gradientUnits="userSpaceOnUse">
<stop stop-color="#F4F5F7" stop-opacity="0.5"/>
<stop offset="0.7519" stop-color="#E2E4E8" stop-opacity="0.9277"/>
<stop offset="1" stop-color="#DFE1E5"/>
</linearGradient>
<linearGradient id="paint1_linear" x1="191.095" y1="117.352" x2="207.501" y2="117.352" gradientUnits="userSpaceOnUse">
<stop stop-color="#FFAB00"/>
<stop offset="1" stop-color="#FFD740"/>
</linearGradient>
<linearGradient id="paint2_linear" x1="576.504" y1="563.874" x2="862.652" y2="277.908" gradientUnits="userSpaceOnUse">
<stop stop-color="#0049B0"/>
<stop offset="1" stop-color="#0065FF"/>
</linearGradient>
<linearGradient id="paint3_linear" x1="90.4038" y1="59.0045" x2="95.9405" y2="53.4739" gradientUnits="userSpaceOnUse">
<stop stop-color="#0065FF"/>
<stop offset="1" stop-color="#66A3FF"/>
</linearGradient>
<linearGradient id="paint4_linear" x1="85.8812" y1="84.3704" x2="106.61" y2="63.6561" gradientUnits="userSpaceOnUse">
<stop stop-color="#0065FF"/>
<stop offset="0.72" stop-color="#66A3FF"/>
</linearGradient>
<linearGradient id="paint5_linear" x1="77.1797" y1="81.5686" x2="92.3026" y2="66.4561" gradientUnits="userSpaceOnUse">
<stop stop-color="#0049B0"/>
<stop offset="1" stop-color="#0065FF"/>
</linearGradient>
<clipPath id="clip0">
<rect width="290" height="187.519" fill="white" transform="translate(0 0.240601)"/>
</clipPath>
<clipPath id="clip1">
<rect width="66.5632" height="40.3333" fill="white" transform="translate(145 91.8667)"/>
</clipPath>
</defs>
</svg>
